<svg viewBox="0 0 1024 1024" version="1.1" xmlns="http://www.w3.org/2000/svg" p-id="14450" width="24" height="24"><path d="M512 981.333333a130.56 130.56 0 0 1-64-17.066666l-298.666667-170.666667A128 128 0 0 1 85.333333 682.666667V341.333333a128 128 0 0 1 64-110.933333l298.666667-170.666667a128 128 0 0 1 128 0l298.666667 170.666667A128 128 0 0 1 938.666667 341.333333v341.333334a128 128 0 0 1-64 110.933333l-298.666667 170.666667a130.56 130.56 0 0 1-64 17.066666z m0-853.333333a42.666667 42.666667 0 0 0-21.333333 5.973333l-298.666667 170.666667A42.666667 42.666667 0 0 0 170.666667 341.333333v341.333334a42.666667 42.666667 0 0 0 21.333333 36.693333l298.666667 170.666667a42.666667 42.666667 0 0 0 42.666666 0l298.666667-170.666667A42.666667 42.666667 0 0 0 853.333333 682.666667V341.333333a42.666667 42.666667 0 0 0-21.333333-36.693333l-298.666667-170.666667A42.666667 42.666667 0 0 0 512 128z m384 554.666667z" p-id="14451" fill="#ffffff"></path><path d="M512 333.226667a42.666667 42.666667 0 0 1-21.333333-5.546667L298.666667 216.746667a42.666667 42.666667 0 1 1 42.666666-74.24l170.666667 98.986666 170.666667-98.986666a42.666667 42.666667 0 1 1 42.666666 74.24l-192 110.933333a42.666667 42.666667 0 0 1-21.333333 5.546667zM320 887.04a42.666667 42.666667 0 0 1-42.666667-42.666667v-196.693333l-170.666666-98.56a42.666667 42.666667 0 1 1 42.666666-74.24l192 110.933333a42.666667 42.666667 0 0 1 21.333334 37.12v221.44a42.666667 42.666667 0 0 1-42.666667 42.666667zM704 887.04a42.666667 42.666667 0 0 1-42.666667-42.666667V622.933333a42.666667 42.666667 0 0 1 21.333334-37.12l192-110.933333a42.666667 42.666667 0 1 1 42.666666 74.24l-170.666666 98.56v196.693333a42.666667 42.666667 0 0 1-42.666667 42.666667z" p-id="14452" fill="#ffffff"></path><path d="M512 554.666667a46.506667 46.506667 0 0 1-21.333333-5.546667L118.186667 334.08a42.666667 42.666667 0 1 1 42.666666-74.24L512 462.933333l351.146667-203.093333a42.666667 42.666667 0 0 1 42.666666 74.24l-372.48 215.466667a46.506667 46.506667 0 0 1-21.333333 5.12z" p-id="14453" fill="#ffffff"></path><path d="M512 984.746667a42.666667 42.666667 0 0 1-42.666667-42.666667V512a42.666667 42.666667 0 0 1 85.333334 0v430.08a42.666667 42.666667 0 0 1-42.666667 42.666667z" p-id="14454" fill="#ffffff"></path></svg>