<svg viewBox="0 0 1024 1024" version="1.1" xmlns="http://www.w3.org/2000/svg" p-id="15402" width="24" height="24"><path d="M848 176H176c-61.86 0-112 50.14-112 112v448c0 61.86 50.14 112 112 112h672c61.86 0 112-50.14 112-112V288c0-61.86-50.14-112-112-112z m23.89 144.85L583.68 560.53c-41.53 34.59-101.83 34.59-143.36 0L152.11 320.85c-15.88-13.2-18.05-36.76-4.85-52.64 13.2-15.88 36.77-18.05 52.64-4.85l288.21 239.68c13.84 11.53 33.95 11.53 47.79 0l288.21-239.68c15.88-13.2 39.44-11.02 52.64 4.85 13.2 15.88 11.02 39.45-4.86 52.64z" fill="#ffffff" p-id="15403"></path></svg>